<svg width="20" height="21" viewBox="0 0 20 21" fill="none" xmlns="http://www.w3.org/2000/svg">
<path d="M10.0022 5.37225C7.16453 5.37225 4.87563 7.66166 4.87563 10.5C4.87563 13.3383 7.16453 15.6277 10.0022 15.6277C12.8399 15.6277 15.1288 13.3383 15.1288 10.5C15.1288 7.66166 12.8399 5.37225 10.0022 5.37225ZM10.0022 13.8337C8.16843 13.8337 6.66927 12.3387 6.66927 10.5C6.66927 8.66133 8.16397 7.1663 10.0022 7.1663C11.8405 7.1663 13.3352 8.66133 13.3352 10.5C13.3352 12.3387 11.836 13.8337 10.0022 13.8337ZM16.5343 5.1625C16.5343 5.82746 15.9989 6.35853 15.3385 6.35853C14.6737 6.35853 14.1428 5.82299 14.1428 5.1625C14.1428 4.50201 14.6782 3.96647 15.3385 3.96647C15.9989 3.96647 16.5343 4.50201 16.5343 5.1625ZM19.9297 6.37638C19.8539 4.77424 19.488 3.35507 18.3146 2.18582C17.1456 1.01657 15.7267 0.650619 14.1249 0.570289C12.4741 0.47657 7.52593 0.47657 5.87507 0.570289C4.27775 0.646156 2.8589 1.01211 1.68544 2.18136C0.511991 3.35061 0.150586 4.76978 0.0702733 6.37192C-0.0234244 8.02315 -0.0234244 12.9724 0.0702733 14.6236C0.146124 16.2258 0.511991 17.6449 1.68544 18.8142C2.8589 19.9834 4.27328 20.3494 5.87507 20.4297C7.52593 20.5234 12.4741 20.5234 14.1249 20.4297C15.7267 20.3538 17.1456 19.9879 18.3146 18.8142C19.4835 17.6449 19.8494 16.2258 19.9297 14.6236C20.0234 12.9724 20.0234 8.02761 19.9297 6.37638ZM17.797 16.3953C17.449 17.2701 16.7752 17.9439 15.8963 18.2965C14.58 18.8186 11.4568 18.6981 10.0022 18.6981C8.54769 18.6981 5.41997 18.8142 4.1082 18.2965C3.23369 17.9484 2.55996 17.2745 2.20747 16.3953C1.68544 15.0788 1.80591 11.9549 1.80591 10.5C1.80591 9.04513 1.68991 5.91671 2.20747 4.60465C2.55549 3.72995 3.22922 3.05606 4.1082 2.7035C5.42443 2.18136 8.54769 2.30185 10.0022 2.30185C11.4568 2.30185 14.5845 2.18582 15.8963 2.7035C16.7708 3.0516 17.4445 3.72548 17.797 4.60465C18.319 5.92118 18.1985 9.04513 18.1985 10.5C18.1985 11.9549 18.319 15.0833 17.797 16.3953Z" fill="white"/>
</svg>
