<svg width="20" height="15" viewBox="0 0 20 15" fill="none" xmlns="http://www.w3.org/2000/svg">
<path d="M19.5821 2.65034C19.3521 1.78085 18.6744 1.09608 17.8139 0.863686C16.2542 0.441406 10 0.441406 10 0.441406C10 0.441406 3.74586 0.441406 2.18613 0.863686C1.32565 1.09611 0.647936 1.78085 0.417919 2.65034C0 4.22633 0 7.51449 0 7.51449C0 7.51449 0 10.8027 0.417919 12.3786C0.647936 13.2481 1.32565 13.9044 2.18613 14.1368C3.74586 14.5591 10 14.5591 10 14.5591C10 14.5591 16.2541 14.5591 17.8139 14.1368C18.6744 13.9044 19.3521 13.2481 19.5821 12.3786C20 10.8027 20 7.51449 20 7.51449C20 7.51449 20 4.22633 19.5821 2.65034ZM7.95453 10.4999V4.52909L13.1818 7.51457L7.95453 10.4999Z" fill="white"/>
</svg>
