<svg width="19" height="16" viewBox="0 0 19 16" fill="none" xmlns="http://www.w3.org/2000/svg">
<path fill-rule="evenodd" clip-rule="evenodd" d="M3.00304 4.47951C2.29608 4.47951 1.72298 5.05261 1.72298 5.75957V13.4399C1.72298 14.1468 2.29608 14.7199 3.00304 14.7199H15.8035C16.5105 14.7199 17.0836 14.1468 17.0836 13.4399V5.75957C17.0836 5.05261 16.5105 4.47951 15.8035 4.47951H3.00304ZM0.442932 5.75957C0.442932 4.34566 1.58913 3.19946 3.00304 3.19946H15.8035C17.2175 3.19946 18.3637 4.34566 18.3637 5.75957V13.4399C18.3637 14.8538 17.2175 16 15.8035 16H3.00304C1.58913 16 0.442932 14.8538 0.442932 13.4399V5.75957Z" fill="url(#paint0_linear_50_214)"/>
<path fill-rule="evenodd" clip-rule="evenodd" d="M13.1301 0.0454481C13.5097 -0.0259148 13.9004 -0.0131138 14.2746 0.0829819C14.6509 0.179623 15.0012 0.358126 15.3006 0.605754C15.6 0.853382 15.841 1.16403 16.0065 1.51554C16.172 1.86704 16.2578 2.25074 16.258 2.63926V3.83951H14.9779V2.63967C14.9779 2.6396 14.9779 2.63953 14.9779 2.63946C14.9778 2.43939 14.9336 2.2418 14.8484 2.06078C14.7631 1.8797 14.6389 1.71967 14.4847 1.59211C14.3305 1.46454 14.15 1.37258 13.9562 1.3228C13.7623 1.27301 13.5599 1.26663 13.3633 1.30409C13.3592 1.30486 13.3552 1.30559 13.3511 1.30629L2.82297 3.10322C2.51406 3.1634 2.23551 3.32887 2.03488 3.57151C1.83308 3.81557 1.72277 4.12241 1.72298 4.4391L1.72298 6.39961H0.442932V4.43973C0.442932 4.43966 0.442932 4.4396 0.442932 4.43954C0.442617 3.82493 0.656736 3.22948 1.04839 2.75581C1.44013 2.28204 1.98492 1.95983 2.58881 1.84474C2.59285 1.84398 2.59689 1.84325 2.60094 1.84255L13.1301 0.0454481Z" fill="url(#paint1_linear_50_214)"/>
<path d="M13.8834 10.8799C13.6303 10.8799 13.3828 10.8049 13.1723 10.6642C12.9618 10.5235 12.7977 10.3236 12.7008 10.0897C12.6039 9.85583 12.5786 9.59846 12.628 9.35015C12.6774 9.10185 12.7993 8.87376 12.9783 8.69474C13.1573 8.51573 13.3854 8.39381 13.6337 8.34442C13.882 8.29503 14.1394 8.32038 14.3733 8.41726C14.6072 8.51415 14.8071 8.67821 14.9478 8.88872C15.0884 9.09922 15.1635 9.34671 15.1635 9.59988C15.1635 9.93937 15.0286 10.265 14.7886 10.505C14.5485 10.7451 14.2229 10.8799 13.8834 10.8799Z" fill="url(#paint2_linear_50_214)"/>
<defs>
<linearGradient id="paint0_linear_50_214" x1="-1.23714" y1="9.59972" x2="20.8081" y2="10.5397" gradientUnits="userSpaceOnUse">
<stop stop-color="#FFA842"/>
<stop offset="1" stop-color="#FF981F"/>
</linearGradient>
<linearGradient id="paint1_linear_50_214" x1="-1.03973" y1="3.19981" x2="18.3408" y2="4.65851" gradientUnits="userSpaceOnUse">
<stop stop-color="#FFA842"/>
<stop offset="1" stop-color="#FF981F"/>
</linearGradient>
<linearGradient id="paint2_linear_50_214" x1="12.3634" y1="9.59988" x2="15.5155" y2="9.69588" gradientUnits="userSpaceOnUse">
<stop stop-color="#FFA842"/>
<stop offset="1" stop-color="#FF981F"/>
</linearGradient>
</defs>
</svg>
