<svg width="18" height="17" viewBox="0 0 18 17" fill="none" xmlns="http://www.w3.org/2000/svg">
<path d="M12.7475 12.8426C11.9156 12.8426 11.2388 12.1658 11.2388 11.3339V8.82836C11.2388 7.99647 11.9156 7.3197 12.7475 7.3197H16.6787C16.7025 7.3197 16.7262 7.32042 16.7497 7.32148V4.82557C16.7497 4.1831 16.2289 3.66227 15.5864 3.66227H1.16333C0.520823 3.66223 0 4.18306 0 4.82553V15.3367C0 15.9792 0.520823 16.5 1.16333 16.5H15.5864C16.2289 16.5 16.7497 15.9792 16.7497 15.3367V12.8408C16.7262 12.8419 16.7025 12.8426 16.6787 12.8426H12.7475Z" fill="#FF5F8C"/>
<path d="M16.6786 8.14632H12.7474C12.3708 8.14632 12.0654 8.45168 12.0654 8.82832V11.3338C12.0654 11.7105 12.3708 12.0158 12.7474 12.0158H16.6786C17.0552 12.0158 17.3606 11.7105 17.3606 11.3338V8.82832C17.3606 8.45164 17.0552 8.14632 16.6786 8.14632ZM14.102 11.0654C13.5584 11.0654 13.1177 10.6247 13.1177 10.081C13.1177 9.53739 13.5584 9.09668 14.102 9.09668C14.6457 9.09668 15.0864 9.53739 15.0864 10.081C15.0864 10.6247 14.6457 11.0654 14.102 11.0654Z" fill="#FF5F8C"/>
<path d="M13.5609 1.53133C13.3006 0.743585 12.451 0.315977 11.6633 0.576238L5.75342 2.52872H13.8904L13.5609 1.53133Z" fill="#FF5F8C"/>
</svg>
